# xmcd
#
# Track frame offsets: 
#        150
#        18717
#        37127
#        54702
#        76030
#        94802
#        114912
#        139602
#        163837
#        178600
#        196937
#        212340
#        230132
#        248402
#        266452
#        286575
#        306070
#        324205
#
# Disc length: 4556 seconds
#
# Revision: 1
# Processed by: cddbd v1.5.2PL0 Copyright (c) Steve Scherf et al.
# Submitted via: ExactAudioCopyFreeDBPlugin 1.0
#
DISCID=ea11ca12
DTITLE=KOFI - MIDNIGHT AT THE OASIS - the best lovers of KOFI
DYEAR=1996
DGENRE=不明
TTITLE0=Midniight At The Oasis
TTITLE1=There Must Be
TTITLE2=Heart Beat
TTITLE3=Curious
TTITLE4=Don't Ask My Neighbours
TTITLE5=2.a.m
TTITLE6=Stand By
TTITLE7=Did't I
TTITLE8=I'm In Love With A Dreadlocks
TTITLE9=Place In The Sun
TTITLE10=Do You Really Want Me
TTITLE11=Things May Come
TTITLE12=Looking Over Love
TTITLE13=Don't Let Be Me Lonely
TTITLE14=Wishing Well
TTITLE15=We Are The Children
TTITLE16=Ain't No Turing Back
TTITLE17=Don't Leave Me Now
EXTD=YEAR: 1996
EXTT0=
EXTT1=
EXTT2=
EXTT3=
EXTT4=
EXTT5=
EXTT6=
EXTT7=
EXTT8=
EXTT9=
EXTT10=
EXTT11=
EXTT12=
EXTT13=
EXTT14=
EXTT15=
EXTT16=
EXTT17=
PLAYORDER=
